<mxfile host="www.draw.io" modified="2020-02-28T15:04:47.589Z" agent="Mozilla/5.0 (Windows NT 6.3; Win64; x64) AppleWebKit/537.36 (KHTML, like Gecko) Chrome/80.0.3987.122 Safari/537.36" etag="XMwiovth64VV09KWWilU" version="12.7.9" type="github" pages="4">
  <diagram id="GRv49k-_aJ5UMlvjV_ZQ" name="UI Design">
    <mxGraphModel dx="862" dy="482" grid="1" gridSize="10" guides="1" tooltips="1" connect="1" arrows="1" fold="1" page="1" pageScale="1" pageWidth="850" pageHeight="1100" math="0" shadow="0">
      <root>
        <mxCell id="qOqrn7PzSsAMvnvHrDkp-0" />
        <mxCell id="qOqrn7PzSsAMvnvHrDkp-1" parent="qOqrn7PzSsAMvnvHrDkp-0" />
        <mxCell id="qOqrn7PzSsAMvnvHrDkp-3" value="" style="rounded=0;whiteSpace=wrap;html=1;" vertex="1" parent="qOqrn7PzSsAMvnvHrDkp-1">
          <mxGeometry x="110" y="60" width="540" height="230" as="geometry" />
        </mxCell>
        <mxCell id="qOqrn7PzSsAMvnvHrDkp-4" value="" style="rounded=1;whiteSpace=wrap;html=1;" vertex="1" parent="qOqrn7PzSsAMvnvHrDkp-1">
          <mxGeometry x="140" y="110" width="340" height="30" as="geometry" />
        </mxCell>
        <mxCell id="qOqrn7PzSsAMvnvHrDkp-5" value="" style="rounded=1;whiteSpace=wrap;html=1;" vertex="1" parent="qOqrn7PzSsAMvnvHrDkp-1">
          <mxGeometry x="140" y="150" width="340" height="30" as="geometry" />
        </mxCell>
        <mxCell id="qOqrn7PzSsAMvnvHrDkp-6" value="Create Pivot" style="rounded=1;whiteSpace=wrap;html=1;" vertex="1" parent="qOqrn7PzSsAMvnvHrDkp-1">
          <mxGeometry x="270" y="190" width="80" height="30" as="geometry" />
        </mxCell>
        <mxCell id="qOqrn7PzSsAMvnvHrDkp-7" value="Select Raw Data" style="rounded=1;whiteSpace=wrap;html=1;" vertex="1" parent="qOqrn7PzSsAMvnvHrDkp-1">
          <mxGeometry x="490" y="110" width="130" height="30" as="geometry" />
        </mxCell>
        <mxCell id="qOqrn7PzSsAMvnvHrDkp-8" value="Select Reference Table" style="rounded=1;whiteSpace=wrap;html=1;" vertex="1" parent="qOqrn7PzSsAMvnvHrDkp-1">
          <mxGeometry x="490" y="150" width="130" height="30" as="geometry" />
        </mxCell>
        <mxCell id="qOqrn7PzSsAMvnvHrDkp-9" value="" style="whiteSpace=wrap;html=1;aspect=fixed;" vertex="1" parent="qOqrn7PzSsAMvnvHrDkp-1">
          <mxGeometry x="130" y="230" width="50" height="50" as="geometry" />
        </mxCell>
        <mxCell id="qOqrn7PzSsAMvnvHrDkp-11" value="Created By: AROR" style="text;html=1;strokeColor=none;fillColor=none;align=center;verticalAlign=middle;whiteSpace=wrap;rounded=0;" vertex="1" parent="qOqrn7PzSsAMvnvHrDkp-1">
          <mxGeometry x="180" y="260" width="120" height="20" as="geometry" />
        </mxCell>
        <mxCell id="qOqrn7PzSsAMvnvHrDkp-12" value="Pivot Table Creator App" style="text;html=1;strokeColor=none;fillColor=none;align=center;verticalAlign=middle;whiteSpace=wrap;rounded=0;" vertex="1" parent="qOqrn7PzSsAMvnvHrDkp-1">
          <mxGeometry x="120" y="70" width="150" height="20" as="geometry" />
        </mxCell>
      </root>
    </mxGraphModel>
  </diagram>
  <diagram id="ts8CG4xzYkmGWjCo2JDu" name="Birds Eye View">
    <mxGraphModel dx="862" dy="482" grid="1" gridSize="10" guides="1" tooltips="1" connect="1" arrows="1" fold="1" page="1" pageScale="1" pageWidth="850" pageHeight="1100" math="0" shadow="0">
      <root>
        <mxCell id="0" />
        <mxCell id="1" parent="0" />
        <mxCell id="_9HciaHiPJakyKDmKunR-1" style="edgeStyle=orthogonalEdgeStyle;rounded=0;orthogonalLoop=1;jettySize=auto;html=1;exitX=0.5;exitY=1;exitDx=0;exitDy=0;entryX=0;entryY=0.5;entryDx=0;entryDy=0;" parent="1" source="_9HciaHiPJakyKDmKunR-2" target="_9HciaHiPJakyKDmKunR-6" edge="1">
          <mxGeometry relative="1" as="geometry">
            <mxPoint x="180" y="240" as="targetPoint" />
          </mxGeometry>
        </mxCell>
        <mxCell id="_9HciaHiPJakyKDmKunR-2" value="Raw Data" style="rounded=1;whiteSpace=wrap;html=1;" parent="1" vertex="1">
          <mxGeometry x="150" y="80" width="120" height="60" as="geometry" />
        </mxCell>
        <mxCell id="_9HciaHiPJakyKDmKunR-3" style="edgeStyle=orthogonalEdgeStyle;rounded=0;orthogonalLoop=1;jettySize=auto;html=1;exitX=0.5;exitY=1;exitDx=0;exitDy=0;entryX=1;entryY=0.5;entryDx=0;entryDy=0;" parent="1" source="_9HciaHiPJakyKDmKunR-4" target="_9HciaHiPJakyKDmKunR-6" edge="1">
          <mxGeometry relative="1" as="geometry" />
        </mxCell>
        <mxCell id="_9HciaHiPJakyKDmKunR-4" value="Reference table" style="rounded=1;whiteSpace=wrap;html=1;" parent="1" vertex="1">
          <mxGeometry x="425" y="80" width="120" height="60" as="geometry" />
        </mxCell>
        <mxCell id="_9HciaHiPJakyKDmKunR-5" style="edgeStyle=orthogonalEdgeStyle;rounded=0;orthogonalLoop=1;jettySize=auto;html=1;exitX=0.5;exitY=1;exitDx=0;exitDy=0;entryX=0.5;entryY=0;entryDx=0;entryDy=0;" parent="1" source="_9HciaHiPJakyKDmKunR-6" target="_9HciaHiPJakyKDmKunR-8" edge="1">
          <mxGeometry relative="1" as="geometry" />
        </mxCell>
        <mxCell id="_9HciaHiPJakyKDmKunR-6" value="Process Data" style="whiteSpace=wrap;html=1;aspect=fixed;" parent="1" vertex="1">
          <mxGeometry x="310" y="200" width="80" height="80" as="geometry" />
        </mxCell>
        <mxCell id="_9HciaHiPJakyKDmKunR-7" style="edgeStyle=orthogonalEdgeStyle;rounded=0;orthogonalLoop=1;jettySize=auto;html=1;exitX=0.5;exitY=1;exitDx=0;exitDy=0;" parent="1" source="_9HciaHiPJakyKDmKunR-8" target="_9HciaHiPJakyKDmKunR-10" edge="1">
          <mxGeometry relative="1" as="geometry" />
        </mxCell>
        <mxCell id="_9HciaHiPJakyKDmKunR-8" value="Master Table" style="rounded=1;whiteSpace=wrap;html=1;" parent="1" vertex="1">
          <mxGeometry x="290" y="380" width="120" height="60" as="geometry" />
        </mxCell>
        <mxCell id="_9HciaHiPJakyKDmKunR-9" style="edgeStyle=orthogonalEdgeStyle;rounded=0;orthogonalLoop=1;jettySize=auto;html=1;exitX=0.5;exitY=1;exitDx=0;exitDy=0;entryX=0.5;entryY=0;entryDx=0;entryDy=0;" parent="1" source="_9HciaHiPJakyKDmKunR-10" target="_9HciaHiPJakyKDmKunR-11" edge="1">
          <mxGeometry relative="1" as="geometry" />
        </mxCell>
        <mxCell id="_9HciaHiPJakyKDmKunR-10" value="Process Pivot" style="whiteSpace=wrap;html=1;aspect=fixed;" parent="1" vertex="1">
          <mxGeometry x="310" y="510" width="80" height="80" as="geometry" />
        </mxCell>
        <mxCell id="_9HciaHiPJakyKDmKunR-11" value="Pivot Table" style="rounded=1;whiteSpace=wrap;html=1;" parent="1" vertex="1">
          <mxGeometry x="290" y="670" width="120" height="60" as="geometry" />
        </mxCell>
      </root>
    </mxGraphModel>
  </diagram>
  <diagram id="oR0G4vUFbW2-mDBV4AMO" name="Process Data">
    
    <mxGraphModel dx="1422" dy="762" grid="1" gridSize="10" guides="1" tooltips="1" connect="1" arrows="1" fold="1" page="1" pageScale="1" pageWidth="850" pageHeight="1100" math="0" shadow="0">
      
      <root>
        
        <mxCell id="2SgMikVqHZc0q1Zw7txJ-0" />
        
        <mxCell id="2SgMikVqHZc0q1Zw7txJ-1" parent="2SgMikVqHZc0q1Zw7txJ-0" />
        
        <mxCell id="2SgMikVqHZc0q1Zw7txJ-2" style="edgeStyle=orthogonalEdgeStyle;rounded=0;orthogonalLoop=1;jettySize=auto;html=1;exitX=1;exitY=0.5;exitDx=0;exitDy=0;entryX=0;entryY=0.5;entryDx=0;entryDy=0;" edge="1" parent="2SgMikVqHZc0q1Zw7txJ-1" source="2SgMikVqHZc0q1Zw7txJ-3" target="2SgMikVqHZc0q1Zw7txJ-5">
          
          <mxGeometry relative="1" as="geometry" />
          
        </mxCell>
        
        <mxCell id="2SgMikVqHZc0q1Zw7txJ-3" value="Raw Data" style="rounded=1;whiteSpace=wrap;html=1;" vertex="1" parent="2SgMikVqHZc0q1Zw7txJ-1">
          
          <mxGeometry x="100" y="90" width="120" height="60" as="geometry" />
          
        </mxCell>
        
        <mxCell id="2SgMikVqHZc0q1Zw7txJ-4" style="edgeStyle=orthogonalEdgeStyle;rounded=0;orthogonalLoop=1;jettySize=auto;html=1;exitX=0.5;exitY=1;exitDx=0;exitDy=0;entryX=0.5;entryY=0;entryDx=0;entryDy=0;" edge="1" parent="2SgMikVqHZc0q1Zw7txJ-1" source="2SgMikVqHZc0q1Zw7txJ-5" target="2SgMikVqHZc0q1Zw7txJ-9">
          
          <mxGeometry relative="1" as="geometry" />
          
        </mxCell>
        
        <mxCell id="2SgMikVqHZc0q1Zw7txJ-5" value="Input Raw Data" style="shape=parallelogram;perimeter=parallelogramPerimeter;whiteSpace=wrap;html=1;" vertex="1" parent="2SgMikVqHZc0q1Zw7txJ-1">
          
          <mxGeometry x="340" y="90" width="120" height="60" as="geometry" />
          
        </mxCell>
        
        <mxCell id="2SgMikVqHZc0q1Zw7txJ-6" style="edgeStyle=orthogonalEdgeStyle;rounded=0;orthogonalLoop=1;jettySize=auto;html=1;exitX=1;exitY=0.5;exitDx=0;exitDy=0;entryX=0;entryY=0.5;entryDx=0;entryDy=0;" edge="1" parent="2SgMikVqHZc0q1Zw7txJ-1" source="2SgMikVqHZc0q1Zw7txJ-9" target="2SgMikVqHZc0q1Zw7txJ-11">
          
          <mxGeometry relative="1" as="geometry" />
          
        </mxCell>
        
        <mxCell id="2SgMikVqHZc0q1Zw7txJ-7" value="Yes" style="text;html=1;align=center;verticalAlign=middle;resizable=0;points=[];labelBackgroundColor=#ffffff;" vertex="1" connectable="0" parent="2SgMikVqHZc0q1Zw7txJ-6">
          
          <mxGeometry x="-0.2745" y="1" relative="1" as="geometry">
            
            <mxPoint as="offset" />
            
          </mxGeometry>
          
        </mxCell>
        
        <mxCell id="2SgMikVqHZc0q1Zw7txJ-8" value="No" style="edgeStyle=orthogonalEdgeStyle;rounded=0;orthogonalLoop=1;jettySize=auto;html=1;exitX=0.5;exitY=1;exitDx=0;exitDy=0;entryX=0.5;entryY=0;entryDx=0;entryDy=0;" edge="1" parent="2SgMikVqHZc0q1Zw7txJ-1" source="2SgMikVqHZc0q1Zw7txJ-9" target="2SgMikVqHZc0q1Zw7txJ-18">
          
          <mxGeometry relative="1" as="geometry" />
          
        </mxCell>
        
        <mxCell id="2SgMikVqHZc0q1Zw7txJ-9" value="Ask if Link with Reference Data" style="rhombus;whiteSpace=wrap;html=1;" vertex="1" parent="2SgMikVqHZc0q1Zw7txJ-1">
          
          <mxGeometry x="360" y="200" width="80" height="80" as="geometry" />
          
        </mxCell>
        
        <mxCell id="2SgMikVqHZc0q1Zw7txJ-10" style="edgeStyle=orthogonalEdgeStyle;rounded=0;orthogonalLoop=1;jettySize=auto;html=1;entryX=0.5;entryY=0;entryDx=0;entryDy=0;exitX=0.5;exitY=1;exitDx=0;exitDy=0;" edge="1" parent="2SgMikVqHZc0q1Zw7txJ-1" source="2SgMikVqHZc0q1Zw7txJ-11" target="2SgMikVqHZc0q1Zw7txJ-15">
          
          <mxGeometry relative="1" as="geometry">
            
            <mxPoint x="603" y="270" as="sourcePoint" />
            
            <mxPoint x="593" y="340" as="targetPoint" />
            
          </mxGeometry>
          
        </mxCell>
        
        <mxCell id="2SgMikVqHZc0q1Zw7txJ-11" value="Input Reference&lt;br&gt;&amp;nbsp; Data" style="shape=parallelogram;perimeter=parallelogramPerimeter;whiteSpace=wrap;html=1;" vertex="1" parent="2SgMikVqHZc0q1Zw7txJ-1">
          
          <mxGeometry x="530" y="210" width="120" height="60" as="geometry" />
          
        </mxCell>
        
        <mxCell id="2SgMikVqHZc0q1Zw7txJ-12" style="edgeStyle=orthogonalEdgeStyle;rounded=0;orthogonalLoop=1;jettySize=auto;html=1;exitX=0;exitY=0.5;exitDx=0;exitDy=0;entryX=1;entryY=0.5;entryDx=0;entryDy=0;" edge="1" parent="2SgMikVqHZc0q1Zw7txJ-1" source="2SgMikVqHZc0q1Zw7txJ-13" target="2SgMikVqHZc0q1Zw7txJ-11">
          
          <mxGeometry relative="1" as="geometry" />
          
        </mxCell>
        
        <mxCell id="2SgMikVqHZc0q1Zw7txJ-13" value="Reference Data" style="rounded=1;whiteSpace=wrap;html=1;" vertex="1" parent="2SgMikVqHZc0q1Zw7txJ-1">
          
          <mxGeometry x="720" y="210" width="120" height="60" as="geometry" />
          
        </mxCell>
        
        <mxCell id="2SgMikVqHZc0q1Zw7txJ-14" style="edgeStyle=orthogonalEdgeStyle;rounded=0;orthogonalLoop=1;jettySize=auto;html=1;exitX=0.5;exitY=1;exitDx=0;exitDy=0;entryX=0.5;entryY=0;entryDx=0;entryDy=0;" edge="1" parent="2SgMikVqHZc0q1Zw7txJ-1" source="2SgMikVqHZc0q1Zw7txJ-15" target="2SgMikVqHZc0q1Zw7txJ-17">
          
          <mxGeometry relative="1" as="geometry" />
          
        </mxCell>
        
        <mxCell id="2SgMikVqHZc0q1Zw7txJ-15" value="Input Relationship of&amp;nbsp;&lt;br&gt;Raw data and Reference Data" style="shape=parallelogram;perimeter=parallelogramPerimeter;whiteSpace=wrap;html=1;" vertex="1" parent="2SgMikVqHZc0q1Zw7txJ-1">
          
          <mxGeometry x="530" y="340" width="120" height="60" as="geometry" />
          
        </mxCell>
        
        <mxCell id="2SgMikVqHZc0q1Zw7txJ-16" style="edgeStyle=orthogonalEdgeStyle;rounded=0;orthogonalLoop=1;jettySize=auto;html=1;entryX=1;entryY=0.5;entryDx=0;entryDy=0;" edge="1" parent="2SgMikVqHZc0q1Zw7txJ-1" source="2SgMikVqHZc0q1Zw7txJ-17" target="2SgMikVqHZc0q1Zw7txJ-18">
          
          <mxGeometry relative="1" as="geometry" />
          
        </mxCell>
        
        <mxCell id="2SgMikVqHZc0q1Zw7txJ-17" value="Process Data" style="whiteSpace=wrap;html=1;aspect=fixed;" vertex="1" parent="2SgMikVqHZc0q1Zw7txJ-1">
          
          <mxGeometry x="550" y="470" width="80" height="80" as="geometry" />
          
        </mxCell>
        
        <mxCell id="2SgMikVqHZc0q1Zw7txJ-18" value="Master Data" style="rounded=1;whiteSpace=wrap;html=1;" vertex="1" parent="2SgMikVqHZc0q1Zw7txJ-1">
          
          <mxGeometry x="340" y="480" width="120" height="60" as="geometry" />
          
        </mxCell>
        
      </root>
      
    </mxGraphModel>
    
  </diagram>
  <diagram id="fRzu-vVoINPSoQQHJ-cd" name="Process Pivot">
    
    <mxGraphModel dx="1422" dy="762" grid="1" gridSize="10" guides="1" tooltips="1" connect="1" arrows="1" fold="1" page="1" pageScale="1" pageWidth="850" pageHeight="1100" math="0" shadow="0">
      
      <root>
        
        <mxCell id="rs7_zYII5Gm7obPiyec2-0" />
        
        <mxCell id="rs7_zYII5Gm7obPiyec2-1" parent="rs7_zYII5Gm7obPiyec2-0" />
        
        <mxCell id="W3C7x5xnFC-iHkXAFwD7-0" value="Master Table" style="rounded=1;whiteSpace=wrap;html=1;" vertex="1" parent="rs7_zYII5Gm7obPiyec2-1">
          
          <mxGeometry x="140" y="120" width="120" height="60" as="geometry" />
          
        </mxCell>
        
        <mxCell id="W3C7x5xnFC-iHkXAFwD7-1" value="Process Pivot" style="whiteSpace=wrap;html=1;aspect=fixed;" vertex="1" parent="rs7_zYII5Gm7obPiyec2-1">
          
          <mxGeometry x="360" y="470" width="80" height="80" as="geometry" />
          
        </mxCell>
        
        <mxCell id="W3C7x5xnFC-iHkXAFwD7-2" value="Pivot Table" style="rounded=1;whiteSpace=wrap;html=1;" vertex="1" parent="rs7_zYII5Gm7obPiyec2-1">
          
          <mxGeometry x="340" y="620" width="120" height="60" as="geometry" />
          
        </mxCell>
        
        <mxCell id="bifUh8xcIL4m-kemcnqP-0" value="input number of pivot tables" style="shape=parallelogram;perimeter=parallelogramPerimeter;whiteSpace=wrap;html=1;" vertex="1" parent="rs7_zYII5Gm7obPiyec2-1">
          
          <mxGeometry x="365" y="120" width="120" height="60" as="geometry" />
          
        </mxCell>
        
        <mxCell id="bifUh8xcIL4m-kemcnqP-1" value="input Name of each Pivot table" style="shape=parallelogram;perimeter=parallelogramPerimeter;whiteSpace=wrap;html=1;" vertex="1" parent="rs7_zYII5Gm7obPiyec2-1">
          
          <mxGeometry x="350" y="210" width="120" height="60" as="geometry" />
          
        </mxCell>
        
      </root>
      
    </mxGraphModel>
    
  </diagram>
</mxfile>
